<svg width="100" height="100" viewBox="0 0 100 100" fill="none" xmlns="http://www.w3.org/2000/svg">
<circle cx="50" cy="50" r="50" fill="black"/>
<path d="M75.3997 41.6993L76.1377 40.0297C77.4352 37.076 79.8115 34.7079 82.7975 33.3925L85.0745 32.3925C85.3507 32.2676 85.5847 32.0674 85.7488 31.8156C85.9128 31.5639 86 31.2712 86 30.9722C86 30.6732 85.9128 30.3805 85.7488 30.1287C85.5847 29.877 85.3507 29.6768 85.0745 29.5518L82.9235 28.6108C79.8624 27.258 77.4455 24.8022 76.1707 21.7495L75.4117 19.9471C75.3002 19.6679 75.1058 19.4283 74.8538 19.2593C74.6017 19.0904 74.3038 19 73.9988 19C73.6937 19 73.3958 19.0904 73.1437 19.2593C72.8917 19.4283 72.6973 19.6679 72.5858 19.9471L71.8268 21.7465C70.5534 24.7999 68.1375 27.2566 65.077 28.6108L62.923 29.5548C62.6476 29.6801 62.4144 29.8803 62.251 30.1317C62.0876 30.3831 62.0008 30.6753 62.0008 30.9736C62.0008 31.272 62.0876 31.5642 62.251 31.8156C62.4144 32.067 62.6476 32.2672 62.923 32.3925L65.203 33.3896C68.1884 34.7063 70.5636 37.0755 71.8598 40.0297L72.5978 41.6993C73.1378 42.9205 74.8567 42.9205 75.3997 41.6993ZM31.3997 63.2508H37.8616L39.6615 58.826H48.3373L50.1373 63.2508H56.5992L46.9994 39.6521H40.9995L31.3997 63.2508ZM43.9994 48.1624L45.9374 52.9264H42.0615L43.9994 48.1624ZM58.9991 63.2508V39.6521H64.999V63.2508H58.9991ZM22.9999 24.9029C22.2043 24.9029 21.4413 25.2137 20.8787 25.7669C20.3161 26.3201 20 27.0704 20 27.8527V75.0502C20 75.8325 20.3161 76.5828 20.8787 77.136C21.4413 77.6892 22.2043 78 22.9999 78H76.9987C77.7943 78 78.5574 77.6892 79.12 77.136C79.6826 76.5828 79.9986 75.8325 79.9986 75.0502V48.5016H73.9988V72.1003H25.9999V30.8026H55.9992V24.9029H22.9999Z" fill="url(#paint0_linear_1_5)"/>
<defs>
<linearGradient id="paint0_linear_1_5" x1="55.961" y1="19" x2="85.1978" y2="78.3941" gradientUnits="userSpaceOnUse">
<stop stop-color="#FFA600"/>
<stop offset="1" stop-color="#FF0000"/>
</linearGradient>
</defs>
</svg>
